<svg width="42" height="41" viewBox="0 0 42 41" fill="none" xmlns="http://www.w3.org/2000/svg">
<path d="M21 0.1875C9.7998 0.1875 0.6875 9.2998 0.6875 20.5C0.6875 31.7002 9.7998 40.8125 21 40.8125C32.2002 40.8125 41.3125 31.7002 41.3125 20.5C41.3125 9.2998 32.2002 0.1875 21 0.1875ZM31.5713 13.6924L18.4463 29.3174C18.3023 29.4889 18.1232 29.6274 17.921 29.7236C17.7188 29.8198 17.4983 29.8714 17.2744 29.875H17.248C17.029 29.8749 16.8125 29.8288 16.6125 29.7396C16.4124 29.6505 16.2334 29.5203 16.0869 29.3574L10.4619 23.1074C10.3191 22.9559 10.2079 22.7774 10.1351 22.5823C10.0622 22.3872 10.0291 22.1795 10.0376 21.9715C10.0461 21.7634 10.0962 21.5591 10.1848 21.3707C10.2734 21.1822 10.3988 21.0134 10.5536 20.8741C10.7084 20.7348 10.8895 20.6278 11.0862 20.5595C11.2829 20.4912 11.4913 20.4629 11.6991 20.4763C11.9069 20.4896 12.1099 20.5444 12.2963 20.6374C12.4826 20.7303 12.6485 20.8596 12.7842 21.0176L17.207 25.9316L29.1787 11.6826C29.4472 11.3721 29.8272 11.1798 30.2364 11.1472C30.6456 11.1146 31.0512 11.2443 31.3655 11.5084C31.6798 11.7724 31.8776 12.1495 31.9161 12.5582C31.9546 12.9669 31.8307 13.3743 31.5713 13.6924Z" fill="#4A89DC"/>
</svg>
