<svg width="26" height="26" viewBox="0 0 26 26" fill="none" xmlns="http://www.w3.org/2000/svg">
<path d="M13 0.5C6.11125 0.5 0.5 6.11125 0.5 13C0.5 19.8888 6.11125 25.5 13 25.5C19.8888 25.5 25.5 19.8888 25.5 13C25.5 6.11125 19.8888 0.5 13 0.5ZM13 3C18.5377 3 23 7.46235 23 13C23 18.5377 18.5377 23 13 23C7.46235 23 3 18.5377 3 13C3 7.46235 7.46235 3 13 3ZM8.88379 7.11621L7.11621 8.88379L11.2324 13L7.11621 17.1162L8.88379 18.8838L13 14.7676L17.1162 18.8838L18.8838 17.1162L14.7676 13L18.8838 8.88379L17.1162 7.11621L13 11.2324L8.88379 7.11621Z" fill="#7F8C8D"/>
</svg>
