<svg width="41" height="41" viewBox="0 0 41 41" fill="none" xmlns="http://www.w3.org/2000/svg">
<path d="M20.5 0C9.17757 0 0 9.17757 0 20.5C0 31.8224 9.17757 41 20.5 41C31.8211 41 41 31.8211 41 20.5C41 9.17891 31.8224 0 20.5 0ZM27.748 25.9363C28.249 26.4373 28.249 27.2483 27.748 27.748C27.247 28.249 26.436 28.249 25.9363 27.748L20.5077 22.3193L15.0418 27.7852C14.537 28.2887 13.7196 28.2887 13.2161 27.7852C12.7113 27.2804 12.7113 26.463 13.2161 25.9594L18.6819 20.4936L13.2532 15.0649C12.7522 14.5639 12.7522 13.7529 13.2532 13.2533C13.7542 12.7523 14.5652 12.7523 15.0648 13.2533L20.4935 18.6819L25.9991 13.1764C26.5039 12.6716 27.3213 12.6716 27.8249 13.1764C28.3297 13.6812 28.3297 14.4987 27.8249 15.0022L22.3193 20.5078L27.748 25.9363Z" fill="#9B59B6"/>
</svg>
